<svg width="74" height="74" viewBox="0 0 74 74" fill="none" xmlns="http://www.w3.org/2000/svg">
<rect width="74" height="74" rx="37" fill="url(#paint0_linear_1_247)"/>
<g clip-path="url(#clip0_1_247)">
<path d="M55.243 52.6584H22.538L26.6652 48.0482C27.0276 48.2411 27.4405 48.3509 27.8785 48.3509C28.8869 48.3509 29.7623 47.7711 30.1933 46.9266L34.4102 47.9956C34.5218 49.3322 35.6403 50.3857 37.0001 50.3857C38.4335 50.3857 39.5997 49.215 39.5997 47.7759C39.5997 46.9823 39.2447 46.2707 38.6861 45.7917L42.125 37.5404L44.574 43.8099C43.9887 44.2889 43.6139 45.0179 43.6139 45.8333C43.6139 47.2724 44.7802 48.4432 46.2137 48.4432C47.6471 48.4432 48.8133 47.2724 48.8133 45.8333C48.8133 45.5393 48.7639 45.2568 48.6742 44.9929L51.6781 41.977C51.9737 41.6802 51.9737 41.1991 51.6781 40.9022C51.3825 40.6055 50.9032 40.6055 50.6076 40.9022L47.7737 43.7471C47.3389 43.4185 46.7984 43.2234 46.2134 43.2234C46.1331 43.2234 46.0538 43.2276 45.9753 43.2348L42.9641 35.5263L45.9891 28.2683C46.0631 28.2747 46.1377 28.2787 46.2134 28.2787C47.4171 28.2787 48.432 27.453 48.7265 26.3362H53.4921C53.9101 26.3362 54.249 25.9959 54.249 25.5763C54.249 25.1566 53.9101 24.8164 53.4921 24.8164H48.67C48.3172 23.7947 47.3497 23.0588 46.2134 23.0588C44.78 23.0588 43.6137 24.2296 43.6137 25.6688C43.6137 26.4892 43.9931 27.2219 44.5846 27.7008L42.1702 33.4936L38.6434 24.4647C39.1733 23.9866 39.5073 23.2937 39.5073 22.5237C39.5073 21.0845 38.3411 19.9138 36.9076 19.9138C35.4741 19.9138 34.3081 21.0845 34.3081 22.5237C34.3081 23.1463 34.5267 23.7185 34.8905 24.1676L28.6502 33.6597C28.3797 33.5637 28.089 33.511 27.7863 33.511C27.4757 33.511 27.1777 33.5661 26.9014 33.6669L21.5409 26.5858V18.8241C21.5409 18.4045 21.202 18.0642 20.7839 18.0642C20.3659 18.0642 20.0269 18.4045 20.0269 18.8241V26.2965H18.757C18.3389 26.2964 18 26.6368 18 27.0564C18 27.4761 18.3389 27.8163 18.757 27.8163H20.027V35.4538H18.757C18.3389 35.4538 18 35.794 18 36.2137C18 36.6333 18.3389 36.9736 18.757 36.9736H20.027V44.7961H18.757C18.3389 44.7961 18 45.1364 18 45.556C18 45.9757 18.3389 46.3159 18.757 46.3159H20.027V53.4183C20.027 53.8379 20.3659 54.1782 20.7839 54.1782H27.3058V55.1757C27.3058 55.5953 27.6447 55.9356 28.0627 55.9356C28.4808 55.9356 28.8197 55.5953 28.8197 55.1757V54.1782H36.4273V55.1757C36.4273 55.5953 36.7661 55.9356 37.1842 55.9356C37.6023 55.9356 37.9412 55.5953 37.9412 55.1757V54.1782H45.733V55.1757C45.733 55.5953 46.0718 55.9356 46.4899 55.9356C46.908 55.9356 47.2469 55.5953 47.2469 55.1757V54.1782H55.2428C55.6609 54.1782 55.9998 53.8379 55.9998 53.4183C55.9998 52.9986 55.6611 52.6584 55.243 52.6584ZM46.2137 44.7434C46.8123 44.7434 47.2995 45.2324 47.2995 45.8335C47.2995 46.4344 46.8124 46.9235 46.2137 46.9235C45.615 46.9235 45.1279 46.4345 45.1279 45.8335C45.1279 45.2324 45.615 44.7434 46.2137 44.7434ZM46.2137 24.5789C46.8124 24.5789 47.2994 25.0679 47.2994 25.669C47.2994 26.27 46.8123 26.7591 46.2137 26.7591C45.6149 26.7591 45.1278 26.27 45.1278 25.669C45.1278 25.0679 45.6149 24.5789 46.2137 24.5789ZM27.8785 46.831C27.2798 46.831 26.7928 46.3419 26.7928 45.7409C26.7928 45.1399 27.2799 44.6509 27.8785 44.6509C28.4772 44.6509 28.9643 45.1399 28.9643 45.7409C28.9642 46.342 28.4772 46.831 27.8785 46.831ZM37 48.8659C36.4013 48.8659 35.9143 48.3769 35.9143 47.7759C35.9143 47.1748 36.4014 46.6858 37 46.6858C37.5986 46.6858 38.0857 47.1748 38.0857 47.7759C38.0857 48.3769 37.5987 48.8659 37 48.8659ZM36.9079 21.434C37.5066 21.434 37.9937 21.923 37.9937 22.5241C37.9937 23.1251 37.5066 23.6141 36.9079 23.6141C36.3092 23.6141 35.8221 23.1251 35.8221 22.5241C35.8221 21.923 36.3092 21.434 36.9079 21.434ZM27.7863 35.0312C28.3851 35.0312 28.8721 35.5201 28.8721 36.1212C28.8721 36.7223 28.385 37.2113 27.7863 37.2113C27.1875 37.2113 26.7005 36.7223 26.7005 36.1212C26.7006 35.5202 27.1877 35.0312 27.7863 35.0312ZM21.541 29.098L25.6905 34.5794C25.3742 35.0117 25.1867 35.5448 25.1867 36.1211C25.1867 37.5603 26.3529 38.7311 27.7863 38.7311C29.2198 38.7311 30.3861 37.5603 30.3861 36.1211C30.3861 35.5376 30.1943 34.9982 29.8706 34.5631L36.145 25.0191C36.3864 25.0936 36.6425 25.1339 36.9078 25.1339C37.0303 25.1339 37.1507 25.1248 37.2687 25.1082L41.331 35.5078L37.2983 45.1837C37.2003 45.1724 37.1009 45.166 36.9999 45.166C36.0243 45.166 35.1729 45.7085 34.7283 46.5087L30.4585 45.4262C30.3032 44.1351 29.2057 43.1309 27.8784 43.1309C26.4449 43.1309 25.2787 44.3017 25.2787 45.7408C25.2787 46.1875 25.3912 46.6082 25.5891 46.9762L21.541 51.4982V29.098Z" fill="white"/>
<path d="M54.2578 38.22C53.9622 37.9232 53.4829 37.9232 53.1873 38.22L52.5883 38.8213C52.2927 39.1182 52.2927 39.5993 52.5883 39.8961C52.7362 40.0445 52.9299 40.1187 53.1236 40.1187C53.3173 40.1187 53.5111 40.0445 53.6589 39.8961L54.2578 39.2948C54.5534 38.998 54.5534 38.5169 54.2578 38.22Z" fill="white"/>
</g>
<defs>
<linearGradient id="paint0_linear_1_247" x1="37" y1="0" x2="37" y2="74" gradientUnits="userSpaceOnUse">
<stop stop-color="#BC7FD9"/>
<stop offset="1" stop-color="#923283"/>
</linearGradient>
<clipPath id="clip0_1_247">
<rect width="38" height="38" fill="white" transform="translate(18 18)"/>
</clipPath>
</defs>
</svg>
