<svg width="74" height="74" viewBox="0 0 74 74" fill="none" xmlns="http://www.w3.org/2000/svg">
<rect width="74" height="74" rx="37" fill="url(#paint0_linear_51_2)"/>
<g clip-path="url(#clip0_51_2)">
<path d="M41.6859 51.7215C42.6547 51.7215 43.4431 50.9331 43.4431 49.9643C43.4431 48.9955 42.6547 48.2071 41.6859 48.2071C40.9233 48.2071 40.279 48.6985 40.0365 49.3786H37.5857V45.8642H40.0365C40.279 46.5442 40.9233 47.0356 41.6859 47.0356C42.6547 47.0356 43.4431 46.2472 43.4431 45.2784C43.4431 44.3096 42.6547 43.5212 41.6859 43.5212C40.9233 43.5212 40.279 44.0126 40.0365 44.6927H37.5857V41.1782H40.0365C40.279 41.8583 40.9233 42.3497 41.6859 42.3497C42.6547 42.3497 43.4431 41.5613 43.4431 40.5925C43.4431 39.6237 42.6547 38.8353 41.6859 38.8353C40.9233 38.8353 40.279 39.3267 40.0365 40.0068H37.5857V38.8353H36.4143V36.3846C37.0943 36.1421 37.5857 35.4978 37.5857 34.7351C37.5857 33.7663 36.7973 32.9779 35.8285 32.9779C34.8597 32.9779 34.0713 33.7663 34.0713 34.7351C34.0713 35.4978 34.5627 36.1421 35.2428 36.3846V38.8353H31.7283V36.3846C32.4084 36.1421 32.8998 35.4978 32.8998 34.7351C32.8998 33.7663 32.1114 32.9779 31.1426 32.9779C30.1738 32.9779 29.3854 33.7663 29.3854 34.7351C29.3854 35.4978 29.8768 36.1421 30.5569 36.3846V38.8353H27.0424V36.3846C27.7225 36.1421 28.2139 35.4978 28.2139 34.7351C28.2139 33.7663 27.4255 32.9779 26.4567 32.9779C25.4879 32.9779 24.6995 33.7663 24.6995 34.7351C24.6995 35.4978 25.1909 36.1421 25.871 36.3846V38.8353H24.6995V40.0068H22.2488C22.0063 39.3267 21.3619 38.8353 20.5993 38.8353C19.6305 38.8353 18.8421 39.6237 18.8421 40.5925C18.8421 41.5613 19.6305 42.3497 20.5993 42.3497C21.3619 42.3497 22.0063 41.8583 22.2488 41.1782H24.6995V44.6927H22.2488C22.0063 44.0126 21.3619 43.5212 20.5993 43.5212C19.6305 43.5212 18.8421 44.3096 18.8421 45.2784C18.8421 46.2472 19.6305 47.0356 20.5993 47.0356C21.3619 47.0356 22.0063 46.5442 22.2488 45.8642H24.6995V49.3786H22.2488C22.0063 48.6985 21.3619 48.2071 20.5993 48.2071C19.6305 48.2071 18.8421 48.9955 18.8421 49.9643C18.8421 50.9331 19.6305 51.7215 20.5993 51.7215C21.3619 51.7215 22.0063 51.2301 22.2488 50.5501H24.6995V51.7215H25.871V54.1723C25.1909 54.4148 24.6995 55.0591 24.6995 55.8217C24.6995 56.7905 25.4879 57.5789 26.4567 57.5789C27.4255 57.5789 28.2139 56.7905 28.2139 55.8217C28.2139 55.0591 27.7225 54.4148 27.0424 54.1723V51.7215H30.5569V54.1723C29.8768 54.4148 29.3854 55.0591 29.3854 55.8217C29.3854 56.7905 30.1738 57.5789 31.1426 57.5789C32.1114 57.5789 32.8998 56.7905 32.8998 55.8217C32.8998 55.0591 32.4084 54.4148 31.7283 54.1723V51.7215H35.2428V54.1723C34.5627 54.4148 34.0713 55.0591 34.0713 55.8217C34.0713 56.7905 34.8597 57.5789 35.8285 57.5789C36.7973 57.5789 37.5857 56.7905 37.5857 55.8217C37.5857 55.0591 37.0943 54.4148 36.4143 54.1723V51.7215H37.5857V50.5501H40.0365C40.279 51.2301 40.9233 51.7215 41.6859 51.7215ZM41.6859 49.3786C42.0092 49.3786 42.2716 49.641 42.2716 49.9643C42.2716 50.2877 42.0092 50.5501 41.6859 50.5501C41.3626 50.5501 41.1002 50.2877 41.1002 49.9643C41.1002 49.641 41.3626 49.3786 41.6859 49.3786ZM41.6859 44.6927C42.0092 44.6927 42.2716 44.9551 42.2716 45.2784C42.2716 45.6017 42.0092 45.8642 41.6859 45.8642C41.3626 45.8642 41.1002 45.6017 41.1002 45.2784C41.1002 44.9551 41.3626 44.6927 41.6859 44.6927ZM41.6859 40.0068C42.0092 40.0068 42.2716 40.2692 42.2716 40.5925C42.2716 40.9158 42.0092 41.1782 41.6859 41.1782C41.3626 41.1782 41.1002 40.9158 41.1002 40.5925C41.1002 40.2692 41.3626 40.0068 41.6859 40.0068ZM20.5993 41.1782C20.276 41.1782 20.0136 40.9158 20.0136 40.5925C20.0136 40.2692 20.276 40.0068 20.5993 40.0068C20.9226 40.0068 21.1851 40.2692 21.1851 40.5925C21.1851 40.9158 20.9226 41.1782 20.5993 41.1782ZM20.5993 45.8642C20.276 45.8642 20.0136 45.6017 20.0136 45.2784C20.0136 44.9551 20.276 44.6927 20.5993 44.6927C20.9226 44.6927 21.1851 44.9551 21.1851 45.2784C21.1851 45.6017 20.9226 45.8642 20.5993 45.8642ZM20.5993 50.5501C20.276 50.5501 20.0136 50.2877 20.0136 49.9643C20.0136 49.641 20.276 49.3786 20.5993 49.3786C20.9226 49.3786 21.1851 49.641 21.1851 49.9643C21.1851 50.2877 20.9226 50.5501 20.5993 50.5501ZM35.8285 34.1494C36.1518 34.1494 36.4143 34.4124 36.4143 34.7351C36.4143 35.0579 36.1518 35.3209 35.8285 35.3209C35.5052 35.3209 35.2428 35.0579 35.2428 34.7351C35.2428 34.4124 35.5052 34.1494 35.8285 34.1494ZM31.1426 34.1494C31.4659 34.1494 31.7283 34.4124 31.7283 34.7351C31.7283 35.0579 31.4659 35.3209 31.1426 35.3209C30.8193 35.3209 30.5569 35.0579 30.5569 34.7351C30.5569 34.4124 30.8193 34.1494 31.1426 34.1494ZM26.4567 34.1494C26.78 34.1494 27.0424 34.4124 27.0424 34.7351C27.0424 35.0579 26.78 35.3209 26.4567 35.3209C26.1334 35.3209 25.871 35.0579 25.871 34.7351C25.871 34.4124 26.1334 34.1494 26.4567 34.1494ZM26.4567 56.4074C26.1334 56.4074 25.871 56.145 25.871 55.8217C25.871 55.4984 26.1334 55.236 26.4567 55.236C26.78 55.236 27.0424 55.4984 27.0424 55.8217C27.0424 56.145 26.78 56.4074 26.4567 56.4074ZM31.1426 56.4074C30.8193 56.4074 30.5569 56.145 30.5569 55.8217C30.5569 55.4984 30.8193 55.236 31.1426 55.236C31.4659 55.236 31.7283 55.4984 31.7283 55.8217C31.7283 56.145 31.4659 56.4074 31.1426 56.4074ZM35.8285 56.4074C35.5052 56.4074 35.2428 56.145 35.2428 55.8217C35.2428 55.4984 35.5052 55.236 35.8285 55.236C36.1518 55.236 36.4143 55.4984 36.4143 55.8217C36.4143 56.145 36.1518 56.4074 35.8285 56.4074ZM36.4143 50.5501H25.871V40.0068H36.4143V50.5501Z" fill="white"/>
<path d="M52.519 30.6344V30.635C52.3005 29.788 51.9643 28.9785 51.5151 28.2194L53.383 26.3509L50.0695 23.038L48.201 24.9065C47.4418 24.4566 46.6329 24.1204 45.7859 23.9019V21.2632H41.1V23.9019C40.2531 24.1204 39.4442 24.4566 38.685 24.9059L36.8165 23.0374L33.503 26.3503L35.3709 28.2188C34.9217 28.9779 34.5855 29.7874 34.367 30.6344H32.314V31.8059H35.3118L35.4072 31.3367C35.6152 30.3111 36.0176 29.3429 36.6033 28.4578L36.8675 28.0589L35.1589 26.3503L36.816 24.6939L38.5246 26.4025L38.9234 26.1383C39.8079 25.5525 40.7761 25.1501 41.8023 24.9422L42.2715 24.8473V22.4347H44.6145V24.8473L45.0837 24.9428C46.1099 25.1507 47.0781 25.5531 47.9626 26.1389L48.3614 26.403L50.07 24.6944L51.7271 26.3509L50.0185 28.0595L50.2827 28.4584C50.8684 29.3434 51.2708 30.3117 51.4787 31.3373L51.5742 31.8065H53.9863V34.1494H51.5742L51.4787 34.6186C51.2708 35.6442 50.8684 36.6125 50.2827 37.4969L50.0185 37.8964L51.7271 39.605L50.07 41.2621L48.3614 39.5535L47.9626 39.8176C47.0775 40.4034 46.1093 40.8064 45.0837 41.0137L44.6145 41.1092V44.107H45.7859V42.054C46.6323 41.8361 47.4418 41.4999 48.201 41.05L50.0695 42.9179L53.383 39.6044L51.5151 37.7359C51.9643 36.9768 52.3005 36.1673 52.519 35.3203H55.1578V30.6344H52.519Z" fill="white"/>
<path d="M43.4431 37.6639V38.8354C46.6728 38.8354 49.3005 36.2078 49.3005 32.978C49.3005 29.7482 46.6728 27.1206 43.4431 27.1206C40.2133 27.1206 37.5857 29.7482 37.5857 32.978H38.7572C38.7572 30.3943 40.8594 28.2921 43.4431 28.2921C46.0268 28.2921 48.129 30.3943 48.129 32.978C48.129 35.5617 46.0268 37.6639 43.4431 37.6639Z" fill="white"/>
<path d="M35.2429 41.1783H27.0426V42.3498H35.2429V41.1783Z" fill="white"/>
<path d="M35.2427 48.2072H34.0713V49.3786H35.2427V48.2072Z" fill="white"/>
<path d="M32.8999 48.2072H27.0426V49.3786H32.8999V48.2072Z" fill="white"/>
<path d="M40.3977 56.0666L40.6309 57.2153C47.7827 55.7632 53.342 50.204 54.794 43.0521L53.6454 42.819C52.2882 49.5093 47.088 54.7095 40.3977 56.0666Z" fill="white"/>
<path d="M33.602 22.775L33.3689 21.627C26.217 23.079 20.6578 28.6382 19.2057 35.7901L20.3544 36.0227C21.7115 29.3335 26.9117 24.1327 33.602 22.775Z" fill="white"/>
</g>
<defs>
<linearGradient id="paint0_linear_51_2" x1="37" y1="0" x2="37" y2="74" gradientUnits="userSpaceOnUse">
<stop stop-color="#92EFC3"/>
<stop offset="1" stop-color="#2F8F5B"/>
</linearGradient>
<clipPath id="clip0_51_2">
<rect width="36.3158" height="36.3158" fill="white" transform="translate(18.8421 21.2632)"/>
</clipPath>
</defs>
</svg>
