<svg width="74" height="74" viewBox="0 0 74 74" fill="none" xmlns="http://www.w3.org/2000/svg">
<rect width="74" height="74" rx="37" fill="url(#paint0_linear_1_215)"/>
<g clip-path="url(#clip0_1_215)">
<path d="M39.4883 24.726C37.6702 22.8493 35.253 21.8157 32.6818 21.8157C30.1106 21.8157 27.6933 22.8493 25.8752 24.726C22.1222 28.6002 22.1222 34.904 25.8752 38.7782C27.6933 40.6549 30.1106 41.6886 32.6818 41.6886C35.253 41.6886 37.6702 40.655 39.4883 38.7782C41.3064 36.9015 42.3077 34.4062 42.3077 31.7521C42.3077 29.098 41.3064 26.6028 39.4883 24.726ZM26.6504 25.5263C28.2614 23.8633 30.4034 22.9474 32.6817 22.9474C34.96 22.9474 37.102 23.8633 38.713 25.5263C39.9845 26.8387 40.8047 28.4928 41.094 30.2878L38.1061 33.304C37.8231 33.1391 37.4968 33.0447 37.1494 33.0447C36.473 33.0447 35.876 33.4015 35.5253 33.9421L31.1336 32.5196C31.1338 32.5065 31.1346 32.4934 31.1346 32.4803C31.1346 31.3684 30.2583 30.4637 29.181 30.4637C28.1039 30.4637 27.2275 31.3684 27.2275 32.4803C27.2275 32.8437 27.3216 33.1848 27.4854 33.4797L25.1811 35.9453C23.4327 32.6081 23.922 28.3427 26.6504 25.5263ZM38.0067 35.0611C38.0067 35.549 37.6221 35.946 37.1495 35.946C36.6768 35.946 36.2922 35.549 36.2922 35.0611C36.2922 34.5733 36.6768 34.1762 37.1495 34.1762C37.6221 34.1762 38.0067 34.5732 38.0067 35.0611ZM30.0383 32.4801C30.0383 32.968 29.6537 33.365 29.1811 33.365C28.7084 33.365 28.3238 32.968 28.3238 32.4801C28.3238 31.9922 28.7084 31.5952 29.1811 31.5952C29.6537 31.5953 30.0383 31.9922 30.0383 32.4801ZM38.713 37.9781C37.102 39.641 34.9601 40.557 32.6818 40.557C30.4035 40.557 28.2615 39.6411 26.6505 37.9781C26.3305 37.6478 26.0416 37.2974 25.7832 36.931L28.2743 34.2654C28.5455 34.4128 28.854 34.4966 29.1811 34.4966C29.8575 34.4966 30.4545 34.1399 30.8052 33.5992L35.1969 35.0217C35.1967 35.0348 35.196 35.0479 35.196 35.061C35.196 36.1729 36.0723 37.0776 37.1495 37.0776C38.2266 37.0776 39.103 36.1729 39.103 35.061C39.103 34.7184 39.0195 34.3957 38.8729 34.1128L41.2114 31.7523C41.2113 34.1041 40.324 36.3151 38.713 37.9781Z" fill="white"/>
<path d="M27.8275 25.9798L28.5467 26.8339C30.2466 25.3087 32.6299 24.8385 34.767 25.6068L35.1276 24.5381C32.6206 23.6367 29.8234 24.1892 27.8275 25.9798Z" fill="white"/>
<path d="M36.5347 25.2239L35.9644 26.1903C36.2545 26.3728 36.533 26.5819 36.792 26.8119L37.507 25.9539C37.2028 25.6839 36.8757 25.4383 36.5347 25.2239Z" fill="white"/>
<path d="M33.9932 38.1198C32.7597 38.3882 31.4921 38.2753 30.3271 37.7935L29.9194 38.8439C30.8028 39.2093 31.7361 39.3939 32.6763 39.3939C33.191 39.3939 33.7077 39.3385 34.2193 39.2272L33.9932 38.1198Z" fill="white"/>
<path d="M46.4135 40.8432L45.6175 41.6648L43.6429 39.486C45.98 35.9595 46.5427 31.5476 45.3302 27.5948L46.8969 26.0133C47.1725 26.167 47.4876 26.2543 47.8223 26.2543C48.8994 26.2543 49.7758 25.3496 49.7758 24.2378C49.7758 23.9085 49.6985 23.5977 49.5623 23.3228L52.9256 19.9278V21.6826H54.0218V18.0173H50.4712V19.149H52.1291L48.8102 22.4991C48.5202 22.3228 48.1826 22.2212 47.8224 22.2212C46.7452 22.2212 45.8688 23.1258 45.8688 24.2377C45.8688 24.5935 45.9589 24.9278 46.1163 25.2183L44.9156 26.4304C44.2692 24.8414 43.3212 23.3533 42.0697 22.0614C36.8931 16.7179 28.4705 16.7181 23.2939 22.0614C18.6827 26.8215 18.1792 34.2404 21.7832 39.5811L20.8602 40.5687C20.589 40.4213 20.2806 40.3375 19.9534 40.3375C18.8763 40.3374 18 41.2421 18 42.354C18 43.4658 18.8763 44.3705 19.9535 44.3705C21.0307 44.3705 21.907 43.4658 21.907 42.354C21.907 41.9904 21.8129 41.6494 21.6491 41.3545L22.4555 40.4917C22.7182 40.8188 22.9971 41.1365 23.2939 41.4429C25.8822 44.1146 29.282 45.4504 32.6818 45.4504C35.2916 45.4504 37.9012 44.6622 40.1439 43.0878L42.1232 45.2718L41.3002 46.1215L50.8865 55.9825L56 50.7043L46.4135 40.8432ZM47.8224 23.3529C48.295 23.3529 48.6796 23.7499 48.6796 24.2378C48.6796 24.7256 48.295 25.1226 47.8224 25.1226C47.3497 25.1226 46.9651 24.7256 46.9651 24.2378C46.9651 23.7499 47.3497 23.3529 47.8224 23.3529ZM19.9535 43.2388C19.4809 43.2388 19.0963 42.8418 19.0963 42.3539C19.0963 41.866 19.4809 41.469 19.9535 41.469C20.4262 41.469 20.8107 41.866 20.8107 42.3539C20.8107 42.8418 20.4261 43.2388 19.9535 43.2388ZM24.0691 40.6427C19.3201 35.7405 19.3201 27.764 24.0691 22.8616C26.4436 20.4105 29.5626 19.1851 32.6817 19.1851C35.8008 19.1851 38.92 20.4106 41.2944 22.8616C46.0435 27.7639 46.0435 35.7404 41.2944 40.6427C36.5456 45.5449 28.818 45.5449 24.0691 40.6427ZM41.0299 42.409C41.3888 42.109 41.736 41.7873 42.0697 41.4429C42.3921 41.1101 42.6944 40.7642 42.9765 40.4071L44.842 42.4654L42.8989 44.4712L41.0299 42.409ZM50.8853 54.3836L42.852 46.12L46.4149 42.4421L54.4482 50.7056L50.8853 54.3836Z" fill="white"/>
<path d="M46.4142 44.085L44.8455 45.7042L45.6208 46.5044L46.4142 45.6853L49.4398 48.8085L50.215 48.0084L46.4142 44.085Z" fill="white"/>
<path d="M51.1568 48.9747L50.3817 49.7786L51.1904 50.6172L51.9655 49.8133L51.1568 48.9747Z" fill="white"/>
<path d="M25.0359 46.0302H23.9396V47.2631H25.0359V46.0302Z" fill="white"/>
<path d="M25.0359 52.9407H23.9396V54.1736H25.0359V52.9407Z" fill="white"/>
<path d="M34.0648 48.4081H32.9685V49.6409H34.0648V48.4081Z" fill="white"/>
<path d="M49.7758 38.2302H48.6795V39.4632H49.7758V38.2302Z" fill="white"/>
<path d="M51.0196 28.4106H49.9233V29.6436H51.0196V28.4106Z" fill="white"/>
<path d="M54.6527 33.6101H53.5564V34.843H54.6527V33.6101Z" fill="white"/>
</g>
<defs>
<linearGradient id="paint0_linear_1_215" x1="37" y1="0" x2="37" y2="74" gradientUnits="userSpaceOnUse">
<stop stop-color="#8684ED"/>
<stop offset="1" stop-color="#4247BB"/>
</linearGradient>
<clipPath id="clip0_1_215">
<rect width="38" height="38" fill="white" transform="translate(18 18)"/>
</clipPath>
</defs>
</svg>
