<svg width="74" height="74" viewBox="0 0 74 74" fill="none" xmlns="http://www.w3.org/2000/svg">
<rect width="74" height="74" rx="37" fill="url(#paint0_linear_29_6)"/>
<g clip-path="url(#clip0_29_6)">
<path d="M50.8254 18.002C47.6235 18.002 45.0936 20.6966 45.0936 24.0546C45.0936 27.4126 47.663 30.0658 50.8254 30.0658C53.9877 30.0658 56.5967 27.3711 56.5967 24.0132C56.5967 20.6552 54.0273 18.002 50.8254 18.002ZM50.8254 28.7392C48.335 28.7392 46.319 26.6249 46.319 24.0132C46.319 21.4014 48.3746 19.3286 50.8254 19.3286C53.3157 19.3286 55.3317 21.4428 55.3317 24.0546C55.3317 26.6664 53.3157 28.7392 50.8254 28.7392Z" fill="white"/>
<path d="M52.6438 24.9666C52.6043 24.8423 52.6043 24.7593 52.5252 24.635C52.4857 24.5521 52.4462 24.4277 52.3671 24.3448C52.2881 24.2619 52.2485 24.179 52.1695 24.096C52.0904 24.0131 52.0114 23.9302 51.8928 23.8888C51.8137 23.8058 51.6951 23.7644 51.6161 23.7229C51.4975 23.6815 51.4184 23.5986 51.2998 23.5571C51.1812 23.5157 51.0626 23.4742 50.9836 23.4327C50.9441 23.4327 50.865 23.3913 50.8255 23.3498C50.7859 23.3084 50.7069 23.3084 50.6674 23.2669C50.6278 23.2255 50.5488 23.2255 50.5092 23.184C50.4697 23.1425 50.4302 23.1011 50.3906 23.0596C50.3511 23.0182 50.3116 22.9767 50.3116 22.8938C50.2721 22.8523 50.2721 22.7694 50.2721 22.728C50.2721 22.6451 50.2721 22.6036 50.2721 22.5207C50.2721 22.4792 50.3116 22.3963 50.3116 22.3549C50.3511 22.3134 50.3511 22.2305 50.3906 22.189C50.4302 22.1476 50.4697 22.1061 50.5092 22.0647C50.5488 22.0232 50.6278 21.9818 50.7069 21.9818C50.7859 21.9403 50.8255 21.9403 50.9045 21.9403C50.9441 21.9403 50.9836 21.9403 51.0231 21.9403C51.0626 21.9403 51.1022 21.9403 51.1417 21.9403C51.2208 21.9403 51.2603 21.9403 51.3394 21.9818C51.4184 21.9818 51.4975 22.0232 51.537 22.0232C51.5765 22.0232 51.6556 22.0647 51.6951 22.0647C51.7742 22.0647 51.8137 22.1061 51.8532 22.1061L52.0509 22.189L52.0904 21.9403L52.1695 21.277V21.1112L52.0114 21.0697C51.9718 21.0697 51.8928 21.0283 51.8532 21.0283C51.8137 21.0283 51.7742 20.9868 51.6951 20.9868C51.6556 20.9868 51.5765 20.9453 51.4975 20.9453C51.4184 20.9453 51.3789 20.9039 51.2998 20.9039H51.2603V20.3235V20.1162H51.0626H50.5092H50.3116V20.3235V20.9453H50.2721C50.1535 20.9868 50.0349 21.0283 49.9163 21.1112C49.7977 21.1526 49.7186 21.2355 49.6396 21.3185C49.5605 21.4014 49.4815 21.4843 49.4024 21.6086C49.3234 21.6916 49.2838 21.8159 49.2443 21.9403C49.2048 22.0647 49.1652 22.189 49.1257 22.3134C49.0862 22.4378 49.0862 22.6036 49.0862 22.728C49.0862 22.8523 49.0862 22.9353 49.1257 23.0596C49.1652 23.184 49.1652 23.2669 49.2443 23.3913C49.2838 23.4742 49.3629 23.5986 49.4024 23.6815C49.4815 23.7644 49.521 23.8473 49.6001 23.9302C49.6791 24.0131 49.7582 24.096 49.8768 24.1375C49.9558 24.2204 50.0744 24.2619 50.1535 24.3033C50.2721 24.3448 50.3906 24.4277 50.4697 24.4692C50.5883 24.5106 50.7069 24.5521 50.7859 24.5935C50.8255 24.5935 50.9045 24.635 50.9441 24.6764C50.9836 24.7179 51.0626 24.7179 51.1022 24.7593C51.1417 24.8008 51.1812 24.8423 51.2208 24.8423C51.2603 24.8837 51.2998 24.9252 51.3394 24.9666C51.3789 25.0081 51.3789 25.0495 51.4184 25.1325C51.4184 25.1739 51.4579 25.2568 51.4579 25.3397C51.4579 25.4227 51.4579 25.4641 51.4579 25.547C51.4579 25.5885 51.4184 25.6714 51.3789 25.7129C51.3394 25.7543 51.2998 25.7958 51.2603 25.8372C51.2208 25.8787 51.1812 25.9201 51.1022 25.9616C51.0626 26.003 50.9836 26.003 50.9441 26.0445C50.9045 26.0445 50.8255 26.086 50.7464 26.086C50.7069 26.086 50.6674 26.086 50.5883 26.086C50.5488 26.086 50.4697 26.086 50.4302 26.086C50.3511 26.086 50.2721 26.086 50.2325 26.086C50.1535 26.086 50.0744 26.0445 50.0349 26.0445C49.9558 26.0445 49.8768 26.003 49.7977 25.9616C49.7186 25.9201 49.6396 25.9201 49.5605 25.8787C49.521 25.8787 49.4815 25.8372 49.4419 25.8372C49.4024 25.8372 49.3629 25.7958 49.3234 25.7958L49.0862 25.6714L49.0466 25.9616L48.9676 26.7078V26.8322L49.0862 26.8736C49.2443 26.8322 49.3234 26.8736 49.4419 26.9151C49.521 26.9565 49.6396 26.998 49.7186 26.998C49.7977 27.0395 49.9163 27.0395 50.0349 27.0809C50.1535 27.1224 50.2325 27.1224 50.3511 27.1224H50.4302V27.7442V27.9515H50.6278H51.1812H51.3789V27.7442V27.0809H51.4184C51.537 27.0395 51.6556 26.998 51.7742 26.9151C51.8928 26.8736 51.9718 26.7907 52.0904 26.7078C52.1695 26.6249 52.2485 26.542 52.3276 26.4176C52.4066 26.3347 52.4462 26.2103 52.5252 26.086C52.5648 25.9616 52.6043 25.8372 52.6438 25.7129C52.6834 25.5885 52.6834 25.4641 52.6834 25.2983C52.6834 25.1739 52.6834 25.091 52.6438 24.9666Z" fill="white"/>
<path d="M48.0583 30.8535C47.8607 30.5633 47.4259 30.5218 47.1492 30.7291L40.7454 36.077L32.4837 32.4703C32.2861 32.3874 32.0489 32.4288 31.8908 32.5532L23.0362 39.1862C22.7595 39.3935 22.6805 39.8081 22.8781 40.0983C22.9967 40.3056 23.1943 40.3885 23.392 40.3885C23.5106 40.3885 23.6292 40.347 23.7477 40.2641L32.3256 33.8383L40.6268 37.4451C40.8245 37.528 41.1012 37.4865 41.2593 37.3622L47.9398 31.807C48.2165 31.5997 48.256 31.1437 48.0583 30.8535Z" fill="white"/>
<path d="M57.3082 53.5717H54.3831V34.3773C54.3831 34.0042 54.1064 33.714 53.7506 33.714H47.9398C47.584 33.714 47.3073 34.0042 47.3073 34.3773V53.5717H45.1727V41.0103C45.1727 40.6372 44.896 40.347 44.5402 40.347H38.6899C38.3341 40.347 38.0574 40.6372 38.0574 41.0103V53.5717H35.9228V40.0154C35.9228 39.6423 35.6461 39.3521 35.2904 39.3521H29.4795C29.1238 39.3521 28.8471 39.6423 28.8471 40.0154V53.5717H26.7125V43.9123C26.7125 43.5392 26.4358 43.249 26.08 43.249H20.2296C19.8739 43.249 19.5972 43.5392 19.5972 43.9123V53.5717H16.6325C16.2767 53.5717 16 53.8619 16 54.235C16 54.6081 16.2767 54.8983 16.6325 54.8983H20.1901H26.0009H29.4795H35.2904H38.6899H44.5007H47.9002H53.7111H57.2687C57.6245 54.8983 57.9012 54.6081 57.9012 54.235C57.9407 53.8619 57.664 53.5717 57.3082 53.5717ZM25.408 53.5717H20.8621V44.5756H25.408V53.5717ZM34.6579 53.5717H30.112V40.6787H34.6579V53.5717ZM43.8682 53.5717H39.3224V41.6737H43.8682V53.5717ZM53.1181 53.5717H48.5722V35.0406H53.1181V53.5717Z" fill="white"/>
</g>
<defs>
<linearGradient id="paint0_linear_29_6" x1="37" y1="0" x2="37" y2="74" gradientUnits="userSpaceOnUse">
<stop stop-color="#D97F95"/>
<stop offset="1" stop-color="#923250"/>
</linearGradient>
<clipPath id="clip0_29_6">
<rect width="42" height="37" fill="white" transform="translate(16 18)"/>
</clipPath>
</defs>
</svg>
