<svg width="122" height="46" viewBox="0 0 122 46" fill="none" xmlns="http://www.w3.org/2000/svg">
<path d="M36.96 12.7574C37.7377 12.549 38.4255 12.0905 38.9172 11.4527C39.4087 10.8149 39.6768 10.0331 39.6803 9.22781V9.21824C39.6803 8.25042 39.2959 7.32225 38.6114 6.63791C37.9271 5.95357 36.9989 5.56911 36.0312 5.56911H36.0218C35.2166 5.57263 34.4349 5.84085 33.7973 6.33243C33.1596 6.824 32.7011 7.51166 32.4928 8.28941C31.8967 10.4489 30.6085 12.3531 28.8262 13.7102C27.0437 15.0672 24.8654 15.8021 22.6251 15.8021C20.3849 15.8021 18.2066 15.0672 16.4241 13.7102C14.6417 12.3531 13.3537 10.4489 12.7575 8.28941C12.549 7.51172 12.0905 6.82416 11.4527 6.33271C10.8149 5.84124 10.0333 5.57314 9.2281 5.56972H9.21853C8.25074 5.56972 7.32255 5.95418 6.63821 6.63852C5.95387 7.32286 5.56942 8.25104 5.56942 9.21885V9.22842C5.57298 10.0336 5.8412 10.8152 6.33277 11.453C6.82434 12.0907 7.51198 12.549 8.28971 12.7574C10.4491 13.3536 12.3534 14.6417 13.7104 16.4241C15.0675 18.2065 15.8023 20.3849 15.8023 22.6251C15.8023 24.8653 15.0675 27.0437 13.7104 28.8262C12.3534 30.6087 10.4491 31.8967 8.28971 32.4928C7.51202 32.7013 6.82445 33.1596 6.33292 33.7973C5.84139 34.435 5.57318 35.2166 5.56962 36.0216V36.0312C5.56962 36.9991 5.95408 37.9271 6.63842 38.6116C7.32278 39.2959 8.25092 39.6803 9.21873 39.6803H9.2283C10.0335 39.6769 10.8151 39.4085 11.4528 38.917C12.0905 38.4253 12.5489 37.7378 12.7573 36.96C13.3535 34.8006 14.6415 32.8964 16.4239 31.5394C18.2064 30.1822 20.3847 29.4474 22.6249 29.4474C24.8651 29.4474 27.0435 30.1822 28.826 31.5394C30.6083 32.8964 31.8965 34.8006 32.4926 36.96C32.7009 37.7378 33.1594 38.4255 33.7971 38.9172C34.4347 39.4087 35.2166 39.6771 36.0218 39.6805H36.0314C36.9991 39.6805 37.9273 39.2959 38.6116 38.6116C39.2959 37.9273 39.6805 36.9991 39.6805 36.0314V36.0216C39.677 35.2164 39.4087 34.4348 38.9172 33.7971C38.4255 33.1594 37.7379 32.7011 36.9602 32.4926C34.8008 31.8965 32.8965 30.6085 31.5395 28.826C30.1824 27.0434 29.4476 24.8651 29.4476 22.6249C29.4476 20.3847 30.1824 18.2063 31.5395 16.4239C32.8965 14.6414 34.8008 13.3534 36.9602 12.7572L36.96 12.7574Z" fill="#AF51C5"/>
<path d="M36.96 12.7574C37.7377 12.549 38.4255 12.0905 38.9172 11.4527C39.4087 10.8149 39.6768 10.0331 39.6803 9.22781V9.21824C39.6803 8.25042 39.2959 7.32225 38.6114 6.63791C37.9271 5.95357 36.9989 5.56911 36.0312 5.56911H36.0218C35.2166 5.57263 34.4349 5.84085 33.7973 6.33243C33.1596 6.824 32.7011 7.51166 32.4928 8.28941C31.8967 10.4489 30.6085 12.3531 28.8262 13.7102C27.0437 15.0672 24.8654 15.8021 22.6251 15.8021C20.3849 15.8021 18.2066 15.0672 16.4241 13.7102C14.6417 12.3531 13.3537 10.4489 12.7575 8.28941C12.549 7.51172 12.0905 6.82416 11.4527 6.33271C10.8149 5.84124 10.0333 5.57314 9.2281 5.56972H9.21853C8.25074 5.56972 7.32255 5.95418 6.63821 6.63852C5.95387 7.32286 5.56942 8.25104 5.56942 9.21885V9.22842C5.57298 10.0336 5.8412 10.8152 6.33277 11.453C6.82434 12.0907 7.51198 12.549 8.28971 12.7574C10.4491 13.3536 12.3534 14.6417 13.7104 16.4241C15.0675 18.2065 15.8023 20.3849 15.8023 22.6251C15.8023 24.8653 15.0675 27.0437 13.7104 28.8262C12.3534 30.6087 10.4491 31.8967 8.28971 32.4928C7.51202 32.7013 6.82445 33.1596 6.33292 33.7973C5.84139 34.435 5.57318 35.2166 5.56962 36.0216V36.0312C5.56962 36.9991 5.95408 37.9271 6.63842 38.6116C7.32278 39.2959 8.25092 39.6803 9.21873 39.6803H9.2283C10.0335 39.6769 10.8151 39.4085 11.4528 38.917C12.0905 38.4253 12.5489 37.7378 12.7573 36.96C13.3535 34.8006 14.6415 32.8964 16.4239 31.5394C18.2064 30.1822 20.3847 29.4474 22.6249 29.4474C24.8651 29.4474 27.0435 30.1822 28.826 31.5394C30.6083 32.8964 31.8965 34.8006 32.4926 36.96C32.7009 37.7378 33.1594 38.4255 33.7971 38.9172C34.4347 39.4087 35.2166 39.6771 36.0218 39.6805H36.0314C36.9991 39.6805 37.9273 39.2959 38.6116 38.6116C39.2959 37.9273 39.6805 36.9991 39.6805 36.0314V36.0216C39.677 35.2164 39.4087 34.4348 38.9172 33.7971C38.4255 33.1594 37.7379 32.7011 36.9602 32.4926C34.8008 31.8965 32.8965 30.6085 31.5395 28.826C30.1824 27.0434 29.4476 24.8651 29.4476 22.6249C29.4476 20.3847 30.1824 18.2063 31.5395 16.4239C32.8965 14.6414 34.8008 13.3534 36.9602 12.7572L36.96 12.7574Z" fill="url(#paint0_linear_1_525)"/>
<path d="M4.77483 2.16133C4.8922 2.27807 5.04305 2.35534 5.20638 2.38238C5.36971 2.40942 5.53739 2.38488 5.68614 2.3122C7.04327 1.65679 8.57029 1.4385 10.0567 1.68741C11.5431 1.93632 12.9157 2.6402 13.9853 3.70197C14.1327 3.85054 14.3319 3.93622 14.5412 3.941C14.7505 3.94579 14.9534 3.86931 15.1075 3.72763C15.1841 3.65456 15.2452 3.56693 15.2874 3.46987C15.3296 3.37281 15.352 3.26831 15.3533 3.16247C15.3545 3.05664 15.3346 2.95165 15.2946 2.85363C15.2547 2.75562 15.1956 2.66658 15.1207 2.59174C13.8165 1.29066 12.1396 0.427745 10.3227 0.122711C8.50589 -0.182323 6.63915 0.0856469 4.98148 0.889443C4.86863 0.945407 4.77072 1.02747 4.69591 1.12884C4.62111 1.2302 4.57155 1.34794 4.55134 1.47229C4.53114 1.59664 4.54087 1.72401 4.57974 1.84384C4.61861 1.96368 4.68549 2.07252 4.77483 2.16133Z" fill="#AF51C5"/>
<path d="M4.77483 2.16133C4.8922 2.27807 5.04305 2.35534 5.20638 2.38238C5.36971 2.40942 5.53739 2.38488 5.68614 2.3122C7.04327 1.65679 8.57029 1.4385 10.0567 1.68741C11.5431 1.93632 12.9157 2.6402 13.9853 3.70197C14.1327 3.85054 14.3319 3.93622 14.5412 3.941C14.7505 3.94579 14.9534 3.86931 15.1075 3.72763C15.1841 3.65456 15.2452 3.56693 15.2874 3.46987C15.3296 3.37281 15.352 3.26831 15.3533 3.16247C15.3545 3.05664 15.3346 2.95165 15.2946 2.85363C15.2547 2.75562 15.1956 2.66658 15.1207 2.59174C13.8165 1.29066 12.1396 0.427745 10.3227 0.122711C8.50589 -0.182323 6.63915 0.0856469 4.98148 0.889443C4.86863 0.945407 4.77072 1.02747 4.69591 1.12884C4.62111 1.2302 4.57155 1.34794 4.55134 1.47229C4.53114 1.59664 4.54087 1.72401 4.57974 1.84384C4.61861 1.96368 4.68549 2.07252 4.77483 2.16133Z" fill="url(#paint1_linear_1_525)"/>
<path d="M0.892345 4.9753C0.0895325 6.62764 -0.180726 8.48839 0.118856 10.3008C0.418438 12.1133 1.2731 13.7881 2.56492 15.0942C2.70076 15.237 2.88369 15.3257 3.0799 15.344C3.27609 15.3623 3.47228 15.309 3.63218 15.1938C3.72277 15.1254 3.79763 15.0383 3.85171 14.9384C3.90578 14.8386 3.93783 14.7283 3.94565 14.615C3.95348 14.5018 3.93693 14.3882 3.89713 14.2818C3.8573 14.1755 3.79515 14.0789 3.71485 13.9987C2.64764 12.9288 1.93954 11.5536 1.68868 10.0635C1.43781 8.57333 1.65659 7.04205 2.31469 5.68179C2.38793 5.53288 2.41287 5.36483 2.38603 5.20107C2.35922 5.0373 2.28195 4.886 2.16505 4.76824C2.07616 4.67882 1.96724 4.61189 1.84731 4.57301C1.72739 4.53414 1.59992 4.52441 1.47548 4.54464C1.35105 4.5649 1.23323 4.61452 1.13181 4.68942C1.0304 4.76431 0.948302 4.86232 0.892345 4.9753Z" fill="#AF51C5"/>
<path d="M0.892345 4.9753C0.0895325 6.62764 -0.180726 8.48839 0.118856 10.3008C0.418438 12.1133 1.2731 13.7881 2.56492 15.0942C2.70076 15.237 2.88369 15.3257 3.0799 15.344C3.27609 15.3623 3.47228 15.309 3.63218 15.1938C3.72277 15.1254 3.79763 15.0383 3.85171 14.9384C3.90578 14.8386 3.93783 14.7283 3.94565 14.615C3.95348 14.5018 3.93693 14.3882 3.89713 14.2818C3.8573 14.1755 3.79515 14.0789 3.71485 13.9987C2.64764 12.9288 1.93954 11.5536 1.68868 10.0635C1.43781 8.57333 1.65659 7.04205 2.31469 5.68179C2.38793 5.53288 2.41287 5.36483 2.38603 5.20107C2.35922 5.0373 2.28195 4.886 2.16505 4.76824C2.07616 4.67882 1.96724 4.61189 1.84731 4.57301C1.72739 4.53414 1.59992 4.52441 1.47548 4.54464C1.35105 4.5649 1.23323 4.61452 1.13181 4.68942C1.0304 4.76431 0.948302 4.86232 0.892345 4.9753Z" fill="url(#paint2_linear_1_525)"/>
<path d="M39.5645 42.9379C38.2069 43.5935 36.6795 43.8117 35.1926 43.5623C33.7059 43.3131 32.333 42.6087 31.2635 41.5463C31.1163 41.3985 30.9178 41.3131 30.7093 41.3085C30.5006 41.3036 30.2985 41.3797 30.1447 41.5208C30.0678 41.5937 30.0063 41.6815 29.9637 41.7786C29.9214 41.8757 29.8988 41.9803 29.8974 42.0864C29.8959 42.1925 29.9159 42.2978 29.9558 42.3959C29.9957 42.4942 30.055 42.5834 30.1299 42.6583C31.4341 43.9593 33.111 44.8222 34.9279 45.1274C36.7446 45.4324 38.6114 45.1645 40.2691 44.3606C40.3819 44.3046 40.4799 44.2226 40.5548 44.1212C40.6295 44.0198 40.679 43.9021 40.6991 43.7777C40.7193 43.6533 40.7095 43.5259 40.6706 43.4062C40.6317 43.2862 40.5648 43.1775 40.4754 43.0887C40.3581 42.9721 40.2072 42.8949 40.0439 42.8678C39.8809 42.8408 39.7131 42.8652 39.5645 42.9379Z" fill="#AF51C5"/>
<path d="M39.5645 42.9379C38.2069 43.5935 36.6795 43.8117 35.1926 43.5623C33.7059 43.3131 32.333 42.6087 31.2635 41.5463C31.1163 41.3985 30.9178 41.3131 30.7093 41.3085C30.5006 41.3036 30.2985 41.3797 30.1447 41.5208C30.0678 41.5937 30.0063 41.6815 29.9637 41.7786C29.9214 41.8757 29.8988 41.9803 29.8974 42.0864C29.8959 42.1925 29.9159 42.2978 29.9558 42.3959C29.9957 42.4942 30.055 42.5834 30.1299 42.6583C31.4341 43.9593 33.111 44.8222 34.9279 45.1274C36.7446 45.4324 38.6114 45.1645 40.2691 44.3606C40.3819 44.3046 40.4799 44.2226 40.5548 44.1212C40.6295 44.0198 40.679 43.9021 40.6991 43.7777C40.7193 43.6533 40.7095 43.5259 40.6706 43.4062C40.6317 43.2862 40.5648 43.1775 40.4754 43.0887C40.3581 42.9721 40.2072 42.8949 40.0439 42.8678C39.8809 42.8408 39.7131 42.8652 39.5645 42.9379Z" fill="url(#paint3_linear_1_525)"/>
<path d="M41.5207 30.1443C41.3796 30.298 41.3034 30.5002 41.3083 30.7089C41.313 30.9173 41.3983 31.1161 41.5461 31.2631C42.6093 32.3334 43.314 33.7075 43.5626 35.1954C43.8114 36.6835 43.5919 38.2119 42.9347 39.57C42.8618 39.7188 42.8372 39.8866 42.864 40.05C42.8911 40.2135 42.9683 40.3646 43.0851 40.4821C43.1739 40.5715 43.2826 40.6383 43.4024 40.6773C43.5221 40.7162 43.6493 40.726 43.7737 40.7058C43.8979 40.6857 44.0158 40.6364 44.117 40.5617C44.2184 40.487 44.3006 40.3892 44.3566 40.2765C45.1629 38.6183 45.4326 36.7503 45.1285 34.9319C44.8243 33.1134 43.9612 31.4349 42.6592 30.1294C42.5843 30.0543 42.4949 29.995 42.3966 29.9549C42.2982 29.9148 42.193 29.8949 42.0869 29.8963C41.9806 29.8977 41.876 29.9203 41.7786 29.9631C41.6813 30.0056 41.5938 30.0671 41.5207 30.1443Z" fill="#AF51C5"/>
<path d="M41.5207 30.1443C41.3796 30.298 41.3034 30.5002 41.3083 30.7089C41.313 30.9173 41.3983 31.1161 41.5461 31.2631C42.6093 32.3334 43.314 33.7075 43.5626 35.1954C43.8114 36.6835 43.5919 38.2119 42.9347 39.57C42.8618 39.7188 42.8372 39.8866 42.864 40.05C42.8911 40.2135 42.9683 40.3646 43.0851 40.4821C43.1739 40.5715 43.2826 40.6383 43.4024 40.6773C43.5221 40.7162 43.6493 40.726 43.7737 40.7058C43.8979 40.6857 44.0158 40.6364 44.117 40.5617C44.2184 40.487 44.3006 40.3892 44.3566 40.2765C45.1629 38.6183 45.4326 36.7503 45.1285 34.9319C44.8243 33.1134 43.9612 31.4349 42.6592 30.1294C42.5843 30.0543 42.4949 29.995 42.3966 29.9549C42.2982 29.9148 42.193 29.8949 42.0869 29.8963C41.9806 29.8977 41.876 29.9203 41.7786 29.9631C41.6813 30.0056 41.5938 30.0671 41.5207 30.1443Z" fill="url(#paint4_linear_1_525)"/>
<path d="M42.9361 5.6828C43.5927 7.04055 43.8116 8.56863 43.5626 10.0561C43.3136 11.5436 42.6089 12.9171 41.5461 13.9871C41.3983 14.1341 41.313 14.3327 41.3083 14.5412C41.3034 14.7497 41.3796 14.952 41.5207 15.1056C41.5936 15.1826 41.6813 15.2441 41.7784 15.2866C41.8756 15.3291 41.9802 15.3517 42.0863 15.3532C42.1924 15.3546 42.2974 15.3347 42.3958 15.2948C42.4939 15.2549 42.5833 15.1957 42.6582 15.1207C43.9598 13.8158 44.8231 12.138 45.1277 10.3202C45.4324 8.5025 45.1637 6.63496 44.3587 4.97692C44.3027 4.8641 44.2204 4.76629 44.119 4.69157C44.0176 4.61683 43.9 4.56736 43.7756 4.54724C43.6514 4.52712 43.5239 4.53692 43.4042 4.57585C43.2843 4.61477 43.1755 4.6817 43.0868 4.77108C42.9701 4.88854 42.8927 5.03946 42.8657 5.20285C42.8388 5.36626 42.8634 5.53401 42.9361 5.6828Z" fill="#AF51C5"/>
<path d="M42.9361 5.6828C43.5927 7.04055 43.8116 8.56863 43.5626 10.0561C43.3136 11.5436 42.6089 12.9171 41.5461 13.9871C41.3983 14.1341 41.313 14.3327 41.3083 14.5412C41.3034 14.7497 41.3796 14.952 41.5207 15.1056C41.5936 15.1826 41.6813 15.2441 41.7784 15.2866C41.8756 15.3291 41.9802 15.3517 42.0863 15.3532C42.1924 15.3546 42.2974 15.3347 42.3958 15.2948C42.4939 15.2549 42.5833 15.1957 42.6582 15.1207C43.9598 13.8158 44.8231 12.138 45.1277 10.3202C45.4324 8.5025 45.1637 6.63496 44.3587 4.97692C44.3027 4.8641 44.2204 4.76629 44.119 4.69157C44.0176 4.61683 43.9 4.56736 43.7756 4.54724C43.6514 4.52712 43.5239 4.53692 43.4042 4.57585C43.2843 4.61477 43.1755 4.6817 43.0868 4.77108C42.9701 4.88854 42.8927 5.03946 42.8657 5.20285C42.8388 5.36626 42.8634 5.53401 42.9361 5.6828Z" fill="url(#paint5_linear_1_525)"/>
<path d="M31.2632 3.70383C32.3331 2.6409 33.7066 1.93629 35.1941 1.68728C36.6816 1.43827 38.2096 1.65713 39.5674 2.31365C39.7162 2.38652 39.884 2.41117 40.0473 2.3842C40.2108 2.35724 40.3616 2.27997 40.4791 2.16319C40.5685 2.07444 40.6355 1.96565 40.6744 1.84585C40.7132 1.72606 40.723 1.59871 40.7029 1.47437C40.6829 1.35003 40.6334 1.23228 40.5587 1.13088C40.484 1.02948 40.3861 0.947349 40.2733 0.891306C38.6151 0.0862498 36.7477 -0.182577 34.93 0.122149C33.1123 0.426876 31.4344 1.29003 30.1295 2.59177C30.0546 2.66675 29.9953 2.75597 29.9554 2.85419C29.9155 2.95243 29.8956 3.05765 29.897 3.16366C29.8984 3.2697 29.921 3.37437 29.9634 3.47151C30.0059 3.56866 30.0674 3.65631 30.1444 3.72928C30.2981 3.8703 30.5003 3.94638 30.709 3.94164C30.9175 3.9369 31.116 3.85169 31.2632 3.70383Z" fill="#AF51C5"/>
<path d="M31.2632 3.70383C32.3331 2.6409 33.7066 1.93629 35.1941 1.68728C36.6816 1.43827 38.2096 1.65713 39.5674 2.31365C39.7162 2.38652 39.884 2.41117 40.0473 2.3842C40.2108 2.35724 40.3616 2.27997 40.4791 2.16319C40.5685 2.07444 40.6355 1.96565 40.6744 1.84585C40.7132 1.72606 40.723 1.59871 40.7029 1.47437C40.6829 1.35003 40.6334 1.23228 40.5587 1.13088C40.484 1.02948 40.3861 0.947349 40.2733 0.891306C38.6151 0.0862498 36.7477 -0.182577 34.93 0.122149C33.1123 0.426876 31.4344 1.29003 30.1295 2.59177C30.0546 2.66675 29.9953 2.75597 29.9554 2.85419C29.9155 2.95243 29.8956 3.05765 29.897 3.16366C29.8984 3.2697 29.921 3.37437 29.9634 3.47151C30.0059 3.56866 30.0674 3.65631 30.1444 3.72928C30.2981 3.8703 30.5003 3.94638 30.709 3.94164C30.9175 3.9369 31.116 3.85169 31.2632 3.70383Z" fill="url(#paint6_linear_1_525)"/>
<path d="M13.9872 41.5463C12.9173 42.6091 11.5438 43.3138 10.0563 43.5628C8.56882 43.8118 7.04077 43.5929 5.683 42.9363C5.53423 42.8636 5.36647 42.839 5.20308 42.8659C5.03967 42.8929 4.88874 42.9703 4.77128 43.087C4.68192 43.1757 4.615 43.2845 4.57607 43.4044C4.53715 43.5241 4.52733 43.6515 4.54745 43.7757C4.56758 43.9001 4.61706 44.0178 4.69178 44.1192C4.7665 44.2206 4.86433 44.3029 4.97712 44.3589C6.63516 45.1639 8.50269 45.4326 10.3205 45.1279C12.1382 44.8233 13.816 43.96 15.1209 42.6584C15.1958 42.5835 15.255 42.4941 15.295 42.3959C15.3349 42.2978 15.3547 42.1925 15.3533 42.0865C15.3519 41.9804 15.3293 41.8757 15.2868 41.7786C15.2443 41.6815 15.1827 41.5938 15.1058 41.5209C14.9522 41.3798 14.7499 41.3036 14.5414 41.3083C14.3329 41.3132 14.1343 41.3983 13.9872 41.5463Z" fill="#AF51C5"/>
<path d="M13.9872 41.5463C12.9173 42.6091 11.5438 43.3138 10.0563 43.5628C8.56882 43.8118 7.04077 43.5929 5.683 42.9363C5.53423 42.8636 5.36647 42.839 5.20308 42.8659C5.03967 42.8929 4.88874 42.9703 4.77128 43.087C4.68192 43.1757 4.615 43.2845 4.57607 43.4044C4.53715 43.5241 4.52733 43.6515 4.54745 43.7757C4.56758 43.9001 4.61706 44.0178 4.69178 44.1192C4.7665 44.2206 4.86433 44.3029 4.97712 44.3589C6.63516 45.1639 8.50269 45.4326 10.3205 45.1279C12.1382 44.8233 13.816 43.96 15.1209 42.6584C15.1958 42.5835 15.255 42.4941 15.295 42.3959C15.3349 42.2978 15.3547 42.1925 15.3533 42.0865C15.3519 41.9804 15.3293 41.8757 15.2868 41.7786C15.2443 41.6815 15.1827 41.5938 15.1058 41.5209C14.9522 41.3798 14.7499 41.3036 14.5414 41.3083C14.3329 41.3132 14.1343 41.3983 13.9872 41.5463Z" fill="url(#paint7_linear_1_525)"/>
<path d="M2.31388 39.5673C1.65727 38.2095 1.43835 36.6815 1.68732 35.194C1.9363 33.7065 2.64091 32.333 3.70386 31.2631C3.85169 31.1159 3.93692 30.9174 3.94166 30.7089C3.94641 30.5002 3.8703 30.298 3.72931 30.1443C3.65632 30.0673 3.56867 30.0058 3.47153 29.9633C3.37437 29.9209 3.2697 29.8983 3.16369 29.8969C3.05767 29.8955 2.95243 29.9154 2.85422 29.9553C2.756 29.9952 2.66676 30.0545 2.5918 30.1294C1.29006 31.4343 0.426903 33.1122 0.122179 34.9299C-0.182546 36.7477 0.0862799 38.6151 0.891332 40.2732C0.947373 40.386 1.0295 40.4839 1.1309 40.5587C1.2323 40.6334 1.35005 40.6829 1.47439 40.7028C1.59873 40.723 1.72609 40.7132 1.84588 40.6743C1.96567 40.6354 2.07445 40.5684 2.16322 40.479C2.27998 40.3616 2.35723 40.2107 2.38425 40.0472C2.41125 39.8839 2.38665 39.7162 2.31388 39.5673Z" fill="#AF51C5"/>
<path d="M2.31388 39.5673C1.65727 38.2095 1.43835 36.6815 1.68732 35.194C1.9363 33.7065 2.64091 32.333 3.70386 31.2631C3.85169 31.1159 3.93692 30.9174 3.94166 30.7089C3.94641 30.5002 3.8703 30.298 3.72931 30.1443C3.65632 30.0673 3.56867 30.0058 3.47153 29.9633C3.37437 29.9209 3.2697 29.8983 3.16369 29.8969C3.05767 29.8955 2.95243 29.9154 2.85422 29.9553C2.756 29.9952 2.66676 30.0545 2.5918 30.1294C1.29006 31.4343 0.426903 33.1122 0.122179 34.9299C-0.182546 36.7477 0.0862799 38.6151 0.891332 40.2732C0.947373 40.386 1.0295 40.4839 1.1309 40.5587C1.2323 40.6334 1.35005 40.6829 1.47439 40.7028C1.59873 40.723 1.72609 40.7132 1.84588 40.6743C1.96567 40.6354 2.07445 40.5684 2.16322 40.479C2.27998 40.3616 2.35723 40.2107 2.38425 40.0472C2.41125 39.8839 2.38665 39.7162 2.31388 39.5673Z" fill="url(#paint8_linear_1_525)"/>
<path d="M58.512 35C58.352 35 58.216 34.944 58.104 34.832C57.992 34.72 57.936 34.576 57.936 34.4V32.72C57.936 32.48 57.984 32.288 58.08 32.144C58.176 32 58.248 31.896 58.296 31.832L66.648 21.032H58.752C58.576 21.032 58.432 20.976 58.32 20.864C58.224 20.752 58.176 20.616 58.176 20.456V18.8C58.176 18.624 58.224 18.48 58.32 18.368C58.432 18.256 58.576 18.2 58.752 18.2H70.224C70.4 18.2 70.544 18.256 70.656 18.368C70.768 18.48 70.824 18.624 70.824 18.8V20.456C70.824 20.648 70.792 20.808 70.728 20.936C70.664 21.064 70.592 21.184 70.512 21.296L62.328 32.144H70.488C70.664 32.144 70.808 32.2 70.92 32.312C71.032 32.424 71.088 32.568 71.088 32.744V34.424C71.088 34.584 71.032 34.72 70.92 34.832C70.808 34.944 70.664 35 70.488 35H58.512ZM78.8462 35.24C77.5662 35.24 76.4862 35.016 75.6062 34.568C74.7422 34.12 74.0782 33.488 73.6142 32.672C73.1662 31.856 72.9102 30.904 72.8462 29.816C72.8302 29.528 72.8222 29.176 72.8222 28.76C72.8222 28.344 72.8302 27.992 72.8462 27.704C72.9102 26.6 73.1742 25.648 73.6382 24.848C74.1182 24.032 74.7902 23.4 75.6542 22.952C76.5342 22.504 77.5982 22.28 78.8462 22.28C80.0942 22.28 81.1502 22.504 82.0142 22.952C82.8942 23.4 83.5662 24.032 84.0302 24.848C84.5102 25.648 84.7822 26.6 84.8462 27.704C84.8622 27.992 84.8702 28.344 84.8702 28.76C84.8702 29.176 84.8622 29.528 84.8462 29.816C84.7822 30.904 84.5182 31.856 84.0542 32.672C83.6062 33.488 82.9422 34.12 82.0622 34.568C81.1982 35.016 80.1262 35.24 78.8462 35.24ZM78.8462 32.864C79.6942 32.864 80.3502 32.6 80.8142 32.072C81.2782 31.528 81.5342 30.736 81.5822 29.696C81.5982 29.456 81.6062 29.144 81.6062 28.76C81.6062 28.376 81.5982 28.064 81.5822 27.824C81.5342 26.8 81.2782 26.016 80.8142 25.472C80.3502 24.928 79.6942 24.656 78.8462 24.656C77.9982 24.656 77.3422 24.928 76.8782 25.472C76.4142 26.016 76.1582 26.8 76.1102 27.824C76.0942 28.064 76.0862 28.376 76.0862 28.76C76.0862 29.144 76.0942 29.456 76.1102 29.696C76.1582 30.736 76.4142 31.528 76.8782 32.072C77.3422 32.6 77.9982 32.864 78.8462 32.864ZM88.1053 35C87.9453 35 87.8093 34.944 87.6973 34.832C87.5853 34.72 87.5293 34.584 87.5293 34.424V23.096C87.5293 22.936 87.5853 22.8 87.6973 22.688C87.8093 22.576 87.9453 22.52 88.1053 22.52H90.0733C90.2333 22.52 90.3693 22.576 90.4813 22.688C90.5933 22.8 90.6493 22.936 90.6493 23.096V24.08C91.0653 23.568 91.5933 23.144 92.2333 22.808C92.8893 22.456 93.6973 22.28 94.6573 22.28C95.6333 22.28 96.4813 22.504 97.2013 22.952C97.9213 23.384 98.4733 24 98.8573 24.8C99.2573 25.6 99.4573 26.56 99.4573 27.68V34.424C99.4573 34.584 99.4013 34.72 99.2893 34.832C99.1773 34.944 99.0413 35 98.8813 35H96.7693C96.6093 35 96.4733 34.944 96.3613 34.832C96.2493 34.72 96.1933 34.584 96.1933 34.424V27.824C96.1933 26.896 95.9613 26.168 95.4973 25.64C95.0493 25.112 94.3933 24.848 93.5293 24.848C92.6973 24.848 92.0333 25.112 91.5373 25.64C91.0413 26.168 90.7933 26.896 90.7933 27.824V34.424C90.7933 34.584 90.7373 34.72 90.6253 34.832C90.5133 34.944 90.3773 35 90.2173 35H88.1053ZM107.882 35.24C106.106 35.24 104.698 34.728 103.658 33.704C102.618 32.68 102.058 31.224 101.978 29.336C101.962 29.176 101.954 28.976 101.954 28.736C101.954 28.48 101.962 28.28 101.978 28.136C102.042 26.936 102.314 25.896 102.794 25.016C103.29 24.136 103.97 23.464 104.834 23C105.698 22.52 106.714 22.28 107.882 22.28C109.178 22.28 110.266 22.552 111.146 23.096C112.026 23.624 112.69 24.368 113.138 25.328C113.586 26.272 113.81 27.368 113.81 28.616V29.12C113.81 29.28 113.754 29.416 113.642 29.528C113.53 29.64 113.386 29.696 113.21 29.696H105.242C105.242 29.696 105.242 29.72 105.242 29.768C105.242 29.816 105.242 29.856 105.242 29.888C105.258 30.448 105.362 30.968 105.554 31.448C105.762 31.912 106.058 32.288 106.442 32.576C106.842 32.864 107.314 33.008 107.858 33.008C108.306 33.008 108.682 32.944 108.986 32.816C109.29 32.672 109.538 32.512 109.73 32.336C109.922 32.16 110.058 32.016 110.138 31.904C110.282 31.712 110.394 31.6 110.474 31.568C110.57 31.52 110.706 31.496 110.882 31.496H112.946C113.106 31.496 113.234 31.544 113.33 31.64C113.442 31.736 113.49 31.856 113.474 32C113.458 32.256 113.322 32.568 113.066 32.936C112.826 33.304 112.474 33.664 112.01 34.016C111.546 34.368 110.962 34.664 110.258 34.904C109.57 35.128 108.778 35.24 107.882 35.24ZM105.242 27.68H110.546V27.608C110.546 26.984 110.442 26.44 110.234 25.976C110.026 25.512 109.722 25.144 109.322 24.872C108.922 24.6 108.442 24.464 107.882 24.464C107.322 24.464 106.842 24.6 106.442 24.872C106.042 25.144 105.738 25.512 105.53 25.976C105.338 26.44 105.242 26.984 105.242 27.608V27.68ZM116.789 35C116.629 35 116.493 34.944 116.381 34.832C116.269 34.72 116.213 34.584 116.213 34.424V32.048C116.213 31.872 116.269 31.728 116.381 31.616C116.493 31.504 116.629 31.448 116.789 31.448H119.189C119.349 31.448 119.485 31.504 119.597 31.616C119.709 31.728 119.765 31.872 119.765 32.048V34.424C119.765 34.584 119.709 34.72 119.597 34.832C119.485 34.944 119.349 35 119.189 35H116.789Z" fill="white"/>
<defs>
<linearGradient id="paint0_linear_1_525" x1="16.6926" y1="-9.26194" x2="32.6677" y2="58.6919" gradientUnits="userSpaceOnUse">
<stop stop-color="#2F79CB"/>
<stop offset="1" stop-color="#AF51C5"/>
</linearGradient>
<linearGradient id="paint1_linear_1_525" x1="8.0668" y1="-1.71326" x2="8.77153" y2="6.51116" gradientUnits="userSpaceOnUse">
<stop stop-color="#2F79CB"/>
<stop offset="1" stop-color="#AF51C5"/>
</linearGradient>
<linearGradient id="paint2_linear_1_525" x1="1.28727" y1="-0.167019" x2="11.6346" y2="15.9013" gradientUnits="userSpaceOnUse">
<stop stop-color="#2F79CB"/>
<stop offset="1" stop-color="#AF51C5"/>
</linearGradient>
<linearGradient id="paint3_linear_1_525" x1="33.423" y1="39.5945" x2="34.1279" y2="47.8202" gradientUnits="userSpaceOnUse">
<stop stop-color="#2F79CB"/>
<stop offset="1" stop-color="#AF51C5"/>
</linearGradient>
<linearGradient id="paint4_linear_1_525" x1="42.5935" y1="25.1919" x2="52.9559" y2="41.2511" gradientUnits="userSpaceOnUse">
<stop stop-color="#2F79CB"/>
<stop offset="1" stop-color="#AF51C5"/>
</linearGradient>
<linearGradient id="paint5_linear_1_525" x1="42.5935" y1="-0.165612" x2="52.9511" y2="15.8908" gradientUnits="userSpaceOnUse">
<stop stop-color="#2F79CB"/>
<stop offset="1" stop-color="#AF51C5"/>
</linearGradient>
<linearGradient id="paint6_linear_1_525" x1="33.4239" y1="-1.71382" x2="34.1287" y2="6.51236" gradientUnits="userSpaceOnUse">
<stop stop-color="#2F79CB"/>
<stop offset="1" stop-color="#AF51C5"/>
</linearGradient>
<linearGradient id="paint7_linear_1_525" x1="8.06426" y1="39.5942" x2="8.76907" y2="47.8206" gradientUnits="userSpaceOnUse">
<stop stop-color="#2F79CB"/>
<stop offset="1" stop-color="#AF51C5"/>
</linearGradient>
<linearGradient id="paint8_linear_1_525" x1="1.28542" y1="25.1941" x2="11.643" y2="41.2508" gradientUnits="userSpaceOnUse">
<stop stop-color="#2F79CB"/>
<stop offset="1" stop-color="#AF51C5"/>
</linearGradient>
</defs>
</svg>
